<!-- icon666.com - MILLIONS OF FREE VECTOR ICONS --><svg xmlns="http://www.w3.org/2000/svg" id="Human_Resource" data-name="Human Resource" viewBox="0 0 64 64"><path d="M61,7H52.41l-4.7-4.71A1.033,1.033,0,0,0,47,2H5A1,1,0,0,0,4,3V4.31a8.689,8.689,0,0,0,4,7.3V12H7a3.009,3.009,0,0,0-3,3v1a3.009,3.009,0,0,0,3,3H8v2a8.973,8.973,0,0,0,2.63,6.37A10.32,10.32,0,0,0,12,28.49v.79a3.978,3.978,0,0,1-2.85,3.83l-2.16.65A6.966,6.966,0,0,0,2,40.46V61a1,1,0,0,0,1,1H61a1,1,0,0,0,1-1V8A1,1,0,0,0,61,7ZM8,17H7a1,1,0,0,1-1-1V15a1,1,0,0,1,1-1H8ZM48,5.41,53.59,11H48ZM46,4v8a1,1,0,0,0,1,1h8V55H32V40.46a6.966,6.966,0,0,0-4.99-6.7l-2.16-.65A3.978,3.978,0,0,1,22,29.28v-.8A9.01,9.01,0,0,0,26,21V19h1a3.009,3.009,0,0,0,3-3V15a3.009,3.009,0,0,0-3-3H26V9a6.97,6.97,0,0,0-2.11-5ZM17,33.93l-3.93-1.47a5.933,5.933,0,0,0,.91-2.99A9.052,9.052,0,0,0,17,30a8.92,8.92,0,0,0,3.02-.53,5.933,5.933,0,0,0,.91,2.99Zm.97,3.45L17.5,38h-1l-.47-.62.97-.97Zm4.41-3.33a6.65,6.65,0,0,0,.62.41l-1.39,3.73-2.81-2.8ZM26,17V14h1a1,1,0,0,1,1,1v1a1,1,0,0,1-1,1ZM6,4.31V4H19a5,5,0,0,1,5,5v2H12.69A6.7,6.7,0,0,1,6,4.31ZM10,21V12.57a8.563,8.563,0,0,0,2.69.43H24v8a7,7,0,1,1-14,0Zm1.63,13.05,3.57,1.34-2.81,2.8L11,34.46C11.21,34.33,11.43,34.2,11.63,34.05ZM9,60V44H7V60H4V40.46a4.959,4.959,0,0,1,3.57-4.78l1.57-.47,1.92,5.14a1.011,1.011,0,0,0,.73.63A1.492,1.492,0,0,0,12,41a1.007,1.007,0,0,0,.71-.29l1.89-1.9.35.46L12.13,60Zm5.15,0,2.72-20h.26l2.72,20ZM30,60H27V44H25V60H21.87L19.05,39.27l.35-.46,1.89,1.9A1.007,1.007,0,0,0,22,41a1.492,1.492,0,0,0,.21-.02,1.011,1.011,0,0,0,.73-.63l1.92-5.14,1.57.47A4.959,4.959,0,0,1,30,40.46Zm30,0H32V57H56a1,1,0,0,0,1-1V12a1.033,1.033,0,0,0-.29-.71L54.41,9H60Z"></path><path d="M32.069,23H29v2h3.069A8.008,8.008,0,0,0,39,31.931V35h2V31.931A8.008,8.008,0,0,0,47.931,25H51V23H47.931A8.008,8.008,0,0,0,41,16.069V13H39v3.069A8.008,8.008,0,0,0,32.069,23ZM39,18.09V20h2V18.09A6.008,6.008,0,0,1,45.91,23H44v2h1.91A6.008,6.008,0,0,1,41,29.91V28H39v1.91A6.008,6.008,0,0,1,34.09,25H36V23H34.09A6.008,6.008,0,0,1,39,18.09Z"></path><rect x="34" y="38" width="17" height="2"></rect><rect x="34" y="42" width="3" height="2"></rect><rect x="39" y="42" width="12" height="2"></rect><rect x="34" y="46" width="17" height="2"></rect><path d="M17,26c2.243,0,4-1.318,4-3H19c0,.408-.779,1-2,1s-2-.592-2-1H13C13,24.682,14.757,26,17,26Z"></path><path d="M14,19a1,1,0,0,0,1-1V17a1,1,0,0,0-2,0v1A1,1,0,0,0,14,19Z"></path><path d="M20,19a1,1,0,0,0,1-1V17a1,1,0,0,0-2,0v1A1,1,0,0,0,20,19Z"></path></svg>